<svg xmlns="http://www.w3.org/2000/svg" viewBox="0 0 64 64">
  <rect width="64" height="64" rx="12" fill="#0e3fa9"/>
  <path d="M18 45V19h8.4c3.9 0 6.6 2.1 6.6 5.4 0 2.4-1.5 4.3-3.9 5l-.2.1.2.1c3 .6 5 2.9 5 5.8 0 3.9-3 6.6-7.7 6.6H18Zm6.9-15.4c2 0 3.3-1.1 3.3-2.9s-1.3-2.8-3.3-2.8H23v5.7h1.9Zm.5 9.7c2.3 0 3.8-1.2 3.8-3.1s-1.5-3.1-3.8-3.1H23v6.2h2.4ZM38.5 45V19h5.9c6.4 0 10.6 4.2 10.6 10.5S50.9 40 44.4 45h-5.9Zm6.2-6.2c4.5-3.5 6.8-6.5 6.8-9.2 0-3.7-2.4-6.2-5.9-6.2h-1.1v15.4h.2Z" fill="#fff"/>
</svg>